<?xml version="1.0" encoding="UTF-8" standalone="no"?><!DOCTYPE svg PUBLIC "-//W3C//DTD SVG 1.1//EN" "http://www.w3.org/Graphics/SVG/1.1/DTD/svg11.dtd"><svg width="100%" height="100%" viewBox="0 0 500 301" version="1.1" xmlns="http://www.w3.org/2000/svg" xmlns:xlink="http://www.w3.org/1999/xlink" xml:space="preserve" xmlns:serif="http://www.serif.com/" style="fill-rule:evenodd;clip-rule:evenodd;stroke-linejoin:round;stroke-miterlimit:2;"><g id="OBJECTS"><path d="M181.737,106.007c21.824,28.567 57.452,29.525 57.452,29.525l13.041,10.389c1.045,0.842 2.312,1.365 3.656,1.49c32.552,3.086 71.576,-31.459 73.821,-41.404c-11.822,14.511 -37.834,22.608 -54.773,26.526c-9.703,2.245 -19.899,0.609 -28.45,-4.498l-0.871,-0.522c-43.329,-3.212 -66.072,-28.712 -66.072,-28.712l2.196,7.206Z" style="fill:url(#_Linear1);fill-rule:nonzero;"/><path d="M245.613,127.513l0.871,0.522c8.551,5.107 18.747,6.743 28.45,4.498c16.939,-3.918 42.951,-12.015 54.773,-26.526c-14.762,3.532 -75.088,17.191 -90.469,2.013c-1.161,-1.151 -2.728,-1.799 -4.363,-1.673c-19.802,1.547 -55.334,-7.546 -55.334,-7.546c-0,0 22.743,25.5 66.072,28.712Z" style="fill:url(#_Linear2);fill-rule:nonzero;"/><path d="M144.185,153.063c-0,1.732 -3.531,16.496 12.518,24.199l-0,-6.098l9.949,16.049l-21.761,37.69c-0,0 -14.829,-2.383 -15.792,11.418l22.147,0c-0,0 19.26,-29.588 31.75,-38.265c1.646,-1.144 2.655,-2.987 2.68,-4.991c0.118,-9.707 -0.414,-37.455 -9.715,-51.866c-2.623,-4.063 -5.723,-5.627 -8.94,-5.628c-10.759,-0.001 -22.836,17.492 -22.836,17.492Z" style="fill:url(#_Linear3);fill-rule:nonzero;"/><path d="M61.052,139.273l-2.567,2.04l24.073,74.465l-0,11.782c-0,0 -9.95,-0.226 -12.037,8.761l21.345,0l3.21,-12.558l-5.173,-53.538l-9.914,-30.952l-18.937,0Z" style="fill:url(#_Linear4);fill-rule:nonzero;"/><path d="M91.119,6.565c-0.485,0.309 -0.962,0.701 -1.396,1.104c-0.984,0.913 -1.808,1.977 -2.513,3.119c-4.035,6.538 -20.477,26.008 -20.477,26.008l21.826,9.791c7.062,-5.457 2.568,-8.346 2.568,-8.346l2.115,-30.36c0.059,-0.862 -0.647,-1.528 -1.41,-1.528c-0.24,0 -0.484,0.066 -0.713,0.212Z" style="fill:url(#_Linear5);fill-rule:nonzero;"/><path d="M62.383,6.349c-3.26,1.393 -8.862,7.294 -17.239,27.338c-0.552,1.325 -0.445,2.844 0.31,4.072l1.383,2.245l-4.769,4.45c-1.296,1.209 -1.345,3.221 -0.155,4.518c-5.553,3.627 -10.206,7.68 -11.783,11.724c-0,0 1.868,3.531 3.425,5.127l4.431,-2.719c-0.233,0.436 -7.101,12.915 -8.581,29.08c-1.2,13.03 1.122,28.45 13.252,41.868l15.731,13.64l0.021,0.016c13.002,9.736 28.807,15.006 45.051,15.016c5.339,0.003 11.351,-0.034 17.72,-0.144c2.244,-0.039 4.537,-0.087 6.859,-0.145l0.116,0c12.508,-0.32 25.886,-0.939 37.979,-2.099c8.067,-0.774 15.564,-1.78 21.833,-3.106c8.436,-1.77 14.655,-4.091 17.103,-7.129c1.296,-3.386 2.254,-6.598 2.873,-9.654c3.589,-17.54 -3.675,-29.777 -19.367,-37.893c-8.058,-4.169 -16.976,-6.385 -26.041,-6.81l-24.707,-1.17c-0,0 -5.34,-1.249 -13.514,-2.322c-0.368,-0.059 -0.6,-0.078 -0.658,-0.088l-0.009,0c-12.48,-1.586 -31.179,-2.669 -47.654,1.577c-4.459,1.151 -8.029,-3.927 -5.272,-7.623c0.02,-0.019 0.039,-0.047 0.059,-0.067c2.834,-3.744 7.419,-5.727 12.111,-5.659l23.197,0.329c12.906,-1.607 14.24,-16.494 14.24,-16.494c-6.635,-1.17 -15.594,-4.527 -25.2,-8.514l-0.686,-5.291c-1.384,-1.847 -2.854,-3.54 -4.441,-5.059c-5.35,-5.156 -11.928,-8.406 -19.976,-9.384l-0.378,-2.669l-3.714,-26.526c-0,0 -0.614,-0.805 -1.916,-0.805c-0.459,0 -1.002,0.1 -1.634,0.37Z" style="fill:url(#_Linear6);fill-rule:nonzero;"/><path d="M86.731,73.911c-0,0 -35.309,-6.425 -35.628,13.474l5.775,0c-0,0 -11.463,74.663 64.302,75.195c2.215,0.019 4.498,-0.029 6.859,-0.145l0.116,0c12.508,-0.32 25.886,-0.939 37.979,-2.099c8.067,-0.774 15.564,-1.78 21.833,-3.106c8.436,-1.77 14.655,-4.091 17.103,-7.129c1.296,-3.386 2.254,-6.598 2.873,-9.654c3.589,-17.54 -3.675,-29.777 -19.367,-37.893c-8.058,-4.169 -16.976,-6.385 -26.041,-6.81l-24.707,-1.17c-0,0 -5.34,-1.249 -13.514,-2.322c-0.368,-0.059 -0.6,-0.078 -0.658,-0.088l-0.009,0c-12.48,-1.586 -31.179,-2.669 -47.654,1.577c-4.459,1.151 -8.029,-3.927 -5.272,-7.623c0.02,-0.019 0.039,-0.047 0.059,-0.067c2.834,-3.744 7.419,-5.727 12.111,-5.659l23.197,0.329c12.906,-1.607 14.24,-16.494 14.24,-16.494c-0,0 -5.997,15.778 -33.597,9.684Z" style="fill:url(#_Linear7);fill-rule:nonzero;"/><path d="M45.144,33.687c-0.552,1.325 -0.445,2.844 0.31,4.072l1.383,2.245l-4.769,4.45c-1.297,1.209 -1.345,3.221 -0.155,4.518c-5.553,3.627 -10.206,7.68 -11.783,11.724c-0,0 1.868,3.531 3.425,5.127l4.303,-2.64c10.34,-19.058 20.802,-22.869 20.802,-22.869c5.776,-10.264 3.723,-33.965 3.723,-33.965c-3.26,1.393 -8.862,7.294 -17.239,27.338Z" style="fill:url(#_Linear8);fill-rule:nonzero;"/><path d="M85.36,122.401c-2.966,3.009 -4.086,5.753 -4.086,5.753c-8.987,17.011 3.691,30.813 3.691,30.813l-24.853,21.264c-3.273,2.801 -5.158,6.893 -5.158,11.201l-0,24.578c2.568,11.465 15.086,9.719 15.086,9.719l-0,-34.986l40.264,-21.283c2.839,-1.499 4.519,-4.538 4.282,-7.738l-0.822,-11.104l8.273,1.609c1.592,-10.374 -5.135,-18.938 -5.135,-18.938l6.74,4.494c-0.006,-0.177 -0.013,-0.352 -0.022,-0.526c-0.655,-12.981 -11.522,-21.441 -22.713,-21.441c-5.495,-0.001 -11.067,2.039 -15.547,6.585Z" style="fill:url(#_Linear9);fill-rule:nonzero;"/><path d="M146.981,104.295c9.416,9.566 12.767,23.464 9.591,36.505c-1.31,5.382 -1.476,9.504 -1.476,9.504l6.742,-6.424c-0,2.302 0.185,4.421 0.532,6.385l-0,0.039l0.01,0c0.687,3.976 2.022,7.274 3.754,10.032c8.251,13.156 25.557,13.717 25.557,13.717c23.111,0 24.707,7.7 24.707,7.7l3.86,35.948l-2.573,6.326c-12.489,0.668 -13.804,12.296 -13.804,12.296l20.865,0l6.743,-16.088l-0,-52.015c-0,-1.21 -0.445,-2.361 -1.257,-3.251l-22.289,-24.522c3.589,-17.54 -3.675,-29.777 -19.367,-37.893c-8.058,-4.169 -16.976,-6.385 -26.041,-6.81l-24.707,-1.17c-0,0 -5.34,-1.249 -13.514,-2.322c2.741,0.417 13.347,2.575 22.667,12.043Z" style="fill:url(#_Linear10);fill-rule:nonzero;"/></g><g id="Logotype" transform="matrix(76.5782,0,0,76.5782,488.158,288.13)"></g><text x="126.369px" y="288.13px" style="font-family:'CambriaMath', 'Cambria Math';font-size:76.578px;fill:#0dcaf2;">⤜<tspan x="195.505px 239.064px 284.269px 313.096px 338.259px 380.696px 420.629px " y="288.13px 288.13px 288.13px 288.13px 288.13px 288.13px 288.13px ">outfox⤏</tspan></text><defs><linearGradient id="_Linear1" x1="0" y1="0" x2="1" y2="0" gradientUnits="userSpaceOnUse" gradientTransform="matrix(150.165,0,0,150.165,179.541,123.203)"><stop offset="0" style="stop-color:#1920bd;stop-opacity:1"/><stop offset="0" style="stop-color:#1920bd;stop-opacity:1"/><stop offset="0.99" style="stop-color:#00eefd;stop-opacity:1"/><stop offset="1" style="stop-color:#00eefd;stop-opacity:1"/></linearGradient><linearGradient id="_Linear2" x1="0" y1="0" x2="1" y2="0" gradientUnits="userSpaceOnUse" gradientTransform="matrix(150.165,0,0,150.165,158.437,116.159)"><stop offset="0" style="stop-color:#f60041;stop-opacity:1"/><stop offset="1" style="stop-color:#ffd700;stop-opacity:1"/></linearGradient><linearGradient id="_Linear3" x1="0" y1="0" x2="1" y2="0" gradientUnits="userSpaceOnUse" gradientTransform="matrix(-90.5142,80.2431,-80.2431,-90.5142,188.801,157.098)"><stop offset="0" style="stop-color:#f60041;stop-opacity:1"/><stop offset="1" style="stop-color:#ffd700;stop-opacity:1"/></linearGradient><linearGradient id="_Linear4" x1="0" y1="0" x2="1" y2="0" gradientUnits="userSpaceOnUse" gradientTransform="matrix(-90.5139,80.2428,-80.2428,-90.5139,113.951,154.442)"><stop offset="0" style="stop-color:#f60041;stop-opacity:1"/><stop offset="0.11" style="stop-color:#f60041;stop-opacity:1"/><stop offset="1" style="stop-color:#ffd700;stop-opacity:1"/></linearGradient><linearGradient id="_Linear5" x1="0" y1="0" x2="1" y2="0" gradientUnits="userSpaceOnUse" gradientTransform="matrix(18.6164,-34.986,34.986,18.6164,74.3594,49.2423)"><stop offset="0" style="stop-color:#f60041;stop-opacity:1"/><stop offset="1" style="stop-color:#ffd700;stop-opacity:1"/></linearGradient><linearGradient id="_Linear6" x1="0" y1="0" x2="1" y2="0" gradientUnits="userSpaceOnUse" gradientTransform="matrix(94.0446,42.6892,-42.6892,94.0446,9.60084,54.2412)"><stop offset="0" style="stop-color:#f60041;stop-opacity:1"/><stop offset="0.91" style="stop-color:#ffd700;stop-opacity:1"/><stop offset="1" style="stop-color:#ffd700;stop-opacity:1"/></linearGradient><linearGradient id="_Linear7" x1="0" y1="0" x2="1" y2="0" gradientUnits="userSpaceOnUse" gradientTransform="matrix(-69.9717,-76.3913,76.3913,-69.9717,168.84,163.229)"><stop offset="0" style="stop-color:#f60041;stop-opacity:1"/><stop offset="1" style="stop-color:#ffd700;stop-opacity:1"/></linearGradient><linearGradient id="_Linear8" x1="0" y1="0" x2="1" y2="0" gradientUnits="userSpaceOnUse" gradientTransform="matrix(-79.6009,13.4808,-13.4808,-79.6009,72.4254,31.9441)"><stop offset="0" style="stop-color:#1920bd;stop-opacity:1"/><stop offset="0" style="stop-color:#1920bd;stop-opacity:1"/><stop offset="0.99" style="stop-color:#00eefd;stop-opacity:1"/><stop offset="1" style="stop-color:#00eefd;stop-opacity:1"/></linearGradient><linearGradient id="_Linear9" x1="0" y1="0" x2="1" y2="0" gradientUnits="userSpaceOnUse" gradientTransform="matrix(-69.9716,-76.3911,76.3911,-69.9716,117.04,204.415)"><stop offset="0" style="stop-color:#f60041;stop-opacity:1"/><stop offset="1" style="stop-color:#ffd700;stop-opacity:1"/></linearGradient><linearGradient id="_Linear10" x1="0" y1="0" x2="1" y2="0" gradientUnits="userSpaceOnUse" gradientTransform="matrix(-164.979,35.9487,-35.9487,-164.979,268.126,143.893)"><stop offset="0" style="stop-color:#f60041;stop-opacity:1"/><stop offset="1" style="stop-color:#ffd700;stop-opacity:1"/></linearGradient></defs></svg>